<svg width="28" height="28" viewBox="0 0 28 28" fill="none" xmlns="http://www.w3.org/2000/svg">
<path d="M18.6666 8.16667C18.6666 7.0817 18.6666 6.53922 18.5474 6.09413C18.2238 4.88631 17.2803 3.94289 16.0725 3.61926C15.6274 3.5 15.0849 3.5 14 3.5C12.915 3.5 12.3725 3.5 11.9274 3.61926C10.7196 3.94289 9.77621 4.88631 9.45257 6.09413C9.33331 6.53922 9.33331 7.0817 9.33331 8.16667M6.06665 24.5H21.9333C23.2401 24.5 23.8935 24.5 24.3926 24.2457C24.8317 24.022 25.1886 23.665 25.4123 23.226C25.6666 22.7269 25.6666 22.0735 25.6666 20.7667V11.9C25.6666 10.5932 25.6666 9.93982 25.4123 9.44069C25.1886 9.00164 24.8317 8.64469 24.3926 8.42098C23.8935 8.16667 23.2401 8.16667 21.9333 8.16667H6.06665C4.75986 8.16667 4.10646 8.16667 3.60734 8.42098C3.16829 8.64469 2.81134 9.00164 2.58763 9.44069C2.33331 9.93982 2.33331 10.5932 2.33331 11.9V20.7667C2.33331 22.0735 2.33331 22.7269 2.58763 23.226C2.81134 23.665 3.16829 24.022 3.60734 24.2457C4.10646 24.5 4.75986 24.5 6.06665 24.5Z" stroke="white" stroke-opacity="0.75" stroke-width="2" stroke-linecap="round" stroke-linejoin="round"/>
</svg>
