<svg width="28" height="28" viewBox="0 0 28 28" fill="none" xmlns="http://www.w3.org/2000/svg">
<path d="M12.8333 12.8333H7.23331C5.92652 12.8333 5.27313 12.8333 4.774 13.0877C4.33496 13.3114 3.978 13.6683 3.7543 14.1074C3.49998 14.6065 3.49998 15.2599 3.49998 16.5667V24.5M24.5 24.5V7.23333C24.5 5.92654 24.5 5.27315 24.2457 4.77402C24.022 4.33498 23.665 3.97802 23.226 3.75432C22.7268 3.5 22.0734 3.5 20.7666 3.5H16.5666C15.2599 3.5 14.6065 3.5 14.1073 3.75432C13.6683 3.97802 13.3113 4.33498 13.0876 4.77402C12.8333 5.27315 12.8333 5.92654 12.8333 7.23333V24.5M25.6666 24.5H2.33331M16.9166 8.16667H20.4166M16.9166 12.8333H20.4166M16.9166 17.5H20.4166" stroke="white" stroke-opacity="0.75" stroke-width="2" stroke-linecap="round" stroke-linejoin="round"/>
</svg>
