<svg width="28" height="28" viewBox="0 0 28 28" fill="none" xmlns="http://www.w3.org/2000/svg">
<path d="M24.5 11.6666H3.5M18.6667 2.33325V6.99992M9.33333 2.33325V6.99992M10.5 18.6666L12.8333 20.9999L18.0833 15.7499M9.1 25.6666H18.9C20.8602 25.6666 21.8403 25.6666 22.589 25.2851C23.2475 24.9496 23.783 24.4141 24.1185 23.7556C24.5 23.0069 24.5 22.0268 24.5 20.0666V10.2666C24.5 8.3064 24.5 7.32631 24.1185 6.57762C23.783 5.91905 23.2475 5.38362 22.589 5.04806C21.8403 4.66659 20.8602 4.66659 18.9 4.66659H9.1C7.13982 4.66659 6.15972 4.66659 5.41103 5.04806C4.75247 5.38362 4.21703 5.91905 3.88148 6.57762C3.5 7.32631 3.5 8.3064 3.5 10.2666V20.0666C3.5 22.0268 3.5 23.0069 3.88148 23.7556C4.21703 24.4141 4.75247 24.9496 5.41103 25.2851C6.15972 25.6666 7.13982 25.6666 9.1 25.6666Z" stroke="white" stroke-opacity="0.75" stroke-width="2" stroke-linecap="round" stroke-linejoin="round"/>
</svg>
