<svg width="32" height="32" viewBox="0 0 32 32" fill="none" xmlns="http://www.w3.org/2000/svg">
<g opacity="0.75">
<path d="M14.6667 5.33331H9.06667C6.82646 5.33331 5.70636 5.33331 4.85071 5.76929C4.09806 6.15278 3.48614 6.7647 3.10265 7.51735C2.66667 8.373 2.66667 9.4931 2.66667 11.7333V22.9333C2.66667 25.1735 2.66667 26.2936 3.10265 27.1493C3.48614 27.9019 4.09806 28.5138 4.85071 28.8973C5.70636 29.3333 6.82646 29.3333 9.06667 29.3333H20.2667C22.5069 29.3333 23.627 29.3333 24.4826 28.8973C25.2353 28.5138 25.8472 27.9019 26.2307 27.1493C26.6667 26.2936 26.6667 25.1735 26.6667 22.9333V17.3333M10.6666 21.3333H12.8994C13.5516 21.3333 13.8777 21.3333 14.1846 21.2596C14.4567 21.1943 14.7168 21.0866 14.9554 20.9404C15.2245 20.7754 15.4551 20.5448 15.9163 20.0836L28.6667 7.33331C29.7712 6.22874 29.7712 4.43788 28.6667 3.33331C27.5621 2.22874 25.7712 2.22874 24.6667 3.33331L11.9163 16.0836C11.4551 16.5448 11.2245 16.7754 11.0596 17.0446C10.9134 17.2831 10.8056 17.5433 10.7403 17.8154C10.6666 18.1223 10.6666 18.4484 10.6666 19.1006V21.3333Z" stroke="white" stroke-width="2" stroke-linecap="round" stroke-linejoin="round"/>
</g>
</svg>
