<svg width="24" height="24" viewBox="0 0 24 24" fill="none" xmlns="http://www.w3.org/2000/svg">
<path fill-rule="evenodd" clip-rule="evenodd" d="M12.0776 5.13581C10.0783 2.7984 6.74422 2.16964 4.23917 4.31001C1.73412 6.45038 1.38144 10.029 3.34867 12.5604C4.98429 14.6651 9.93424 19.1041 11.5566 20.5408C11.7381 20.7016 11.8288 20.7819 11.9347 20.8135C12.0271 20.8411 12.1282 20.8411 12.2206 20.8135C12.3264 20.7819 12.4172 20.7016 12.5987 20.5408C14.221 19.1041 19.171 14.6651 20.8066 12.5604C22.7738 10.029 22.4642 6.42787 19.9161 4.31001C17.368 2.19216 14.077 2.7984 12.0776 5.13581Z" stroke="#FF4C4C" stroke-width="2" stroke-linecap="round" stroke-linejoin="round"/>
<path d="M3.58446 5.50003C4.38446 3.50003 6.58446 3.33336 7.58446 3.50003L12.5845 4.5L19.0845 3.50003L22.5845 9C22.0845 9.83333 20.4845 12.3 18.0845 15.5C15.6845 18.7 12.7511 20.1667 11.5845 20.5C9.9178 19.1667 5.98446 15.7 3.58446 12.5C0.584459 8.5 2.58446 8.00003 3.58446 5.50003Z" fill="#FF4C4C"/>
</svg>
