<svg width="28" height="28" viewBox="0 0 28 28" fill="none" xmlns="http://www.w3.org/2000/svg">
<path d="M16.6244 2.33325H9.90961C9.70022 2.33325 9.59552 2.33325 9.50309 2.36513C9.42135 2.39333 9.3469 2.43934 9.28513 2.49984C9.21528 2.56826 9.16846 2.6619 9.07481 2.84919L4.17481 12.6492C3.95119 13.0964 3.83937 13.3201 3.86623 13.5018C3.88968 13.6606 3.97748 13.8026 4.10897 13.8946C4.25955 13.9999 4.50957 13.9999 5.00961 13.9999H12.2494L8.74945 25.6666L22.9747 10.9144C23.4547 10.4167 23.6946 10.1679 23.7087 9.95495C23.7208 9.77012 23.6445 9.59048 23.503 9.47096C23.34 9.33325 22.9943 9.33325 22.3029 9.33325H13.9994L16.6244 2.33325Z" stroke="white" stroke-opacity="0.75" stroke-width="2" stroke-linecap="round" stroke-linejoin="round"/>
</svg>
