<svg width="28" height="28" viewBox="0 0 28 28" fill="none" xmlns="http://www.w3.org/2000/svg">
<path d="M9.3329 11.0833H13.9996M9.3329 15.1667H17.4996M14.5829 23.3333C20.0597 23.3333 24.4996 18.8935 24.4996 13.4167C24.4996 7.93984 20.0597 3.5 14.5829 3.5C9.10608 3.5 4.66623 7.93984 4.66623 13.4167C4.66623 14.525 4.84806 15.5909 5.1835 16.586C5.30973 16.9606 5.37285 17.1478 5.38423 17.2917C5.39548 17.4337 5.38698 17.5333 5.35183 17.6714C5.31624 17.8113 5.23766 17.9567 5.08051 18.2476L3.17224 21.7797C2.90005 22.2836 2.76395 22.5355 2.79441 22.7299C2.82094 22.8992 2.92061 23.0483 3.06694 23.1376C3.23494 23.2401 3.51975 23.2106 4.08937 23.1518L10.0639 22.5342C10.2448 22.5155 10.3353 22.5061 10.4177 22.5093C10.4988 22.5124 10.5561 22.52 10.6352 22.5382C10.7156 22.5568 10.8167 22.5957 11.0189 22.6736C12.125 23.0997 13.3267 23.3333 14.5829 23.3333Z" stroke="white" stroke-opacity="0.75" stroke-width="2" stroke-linecap="round" stroke-linejoin="round"/>
</svg>
