<svg width="28" height="28" viewBox="0 0 28 28" fill="none" xmlns="http://www.w3.org/2000/svg">
<path d="M15.1666 7.00007L7.58544 8.51631C7.16194 8.60101 6.95019 8.64336 6.77776 8.74634C6.62531 8.83738 6.49566 8.96202 6.39867 9.11075C6.28897 9.27899 6.2383 9.48891 6.13697 9.90873L2.33331 25.6667M2.33331 25.6667L18.0913 21.8631C18.5111 21.7617 18.7211 21.7111 18.8893 21.6014C19.038 21.5044 19.1627 21.3747 19.2537 21.2223C19.3567 21.0499 19.399 20.8381 19.4837 20.4146L21 12.8334M2.33331 25.6667L11.1836 16.8164M24.3467 9.18014L18.8199 3.65333C18.3579 3.19131 18.1269 2.9603 17.8605 2.87375C17.6262 2.79762 17.3738 2.79762 17.1395 2.87375C16.8731 2.9603 16.6421 3.19131 16.18 3.65333L15.3199 4.51347C14.8579 4.97549 14.6269 5.2065 14.5403 5.47288C14.4642 5.7072 14.4642 5.9596 14.5403 6.19392C14.6269 6.4603 14.8579 6.69131 15.3199 7.15333L20.8467 12.6801C21.3087 13.1422 21.5397 13.3732 21.8061 13.4597C22.0404 13.5359 22.2928 13.5359 22.5272 13.4597C22.7935 13.3732 23.0246 13.1422 23.4866 12.6801L24.3467 11.82C24.8087 11.358 25.0397 11.127 25.1263 10.8606C25.2024 10.6263 25.2024 10.3739 25.1263 10.1395C25.0397 9.87316 24.8087 9.64215 24.3467 9.18014ZM12.8333 12.8334C14.122 12.8334 15.1666 13.8781 15.1666 15.1667C15.1666 16.4554 14.122 17.5001 12.8333 17.5001C11.5446 17.5001 10.5 16.4554 10.5 15.1667C10.5 13.8781 11.5446 12.8334 12.8333 12.8334Z" stroke="white" stroke-opacity="0.75" stroke-width="2" stroke-linecap="round" stroke-linejoin="round"/>
</svg>
