<svg width="28" height="28" viewBox="0 0 28 28" fill="none" xmlns="http://www.w3.org/2000/svg">
<path d="M10.5 19.8333L4.66665 25.6666M17.5 19.8333L23.3333 25.6666M14 2.33325V4.66659M14 25.6666V19.8333M6.06665 19.8333H21.9333C23.2401 19.8333 23.8935 19.8333 24.3926 19.5789C24.8317 19.3552 25.1886 18.9983 25.4123 18.5592C25.6666 18.0601 25.6666 17.4067 25.6666 16.0999V8.39992C25.6666 7.09313 25.6666 6.43973 25.4123 5.94061C25.1886 5.50156 24.8317 5.14461 24.3926 4.9209C23.8935 4.66659 23.2401 4.66659 21.9333 4.66659H6.06665C4.75986 4.66659 4.10646 4.66659 3.60734 4.9209C3.16829 5.14461 2.81134 5.50156 2.58763 5.94061C2.33331 6.43973 2.33331 7.09313 2.33331 8.39992V16.0999C2.33331 17.4067 2.33331 18.0601 2.58763 18.5592C2.81134 18.9983 3.16829 19.3552 3.60734 19.5789C4.10646 19.8333 4.75986 19.8333 6.06665 19.8333Z" stroke="white" stroke-opacity="0.75" stroke-width="2" stroke-linecap="round" stroke-linejoin="round"/>
</svg>
